<svg xmlns="http://www.w3.org/2000/svg" version="1.1" xmlns:xlink="http://www.w3.org/1999/xlink" xmlns:svgjs="http://svgjs.com/svgjs" width="512" height="512" x="0" y="0" viewBox="0 0 49.829 49.829" style="enable-background:new 0 0 512 512" xml:space="preserve" class=""><g><path d="M43.302 7.914a1 1 0 0 1-.72-1.693c1.038-1.08 1.59-2.29 1.407-3.082-.118-.509-.576-.912-1.362-1.199a1 1 0 0 1 .687-1.879c1.819.665 2.431 1.796 2.623 2.627.342 1.478-.374 3.316-1.914 4.92a1.001 1.001 0 0 1-.721.306z" style="" fill="#659c35" data-original="#659c35"></path><path d="M32.238 15.303c-.137.467-.272.963-.4 1.526-3.5 15.417-16.372 23.55-30.887 31.589-.664.368-.755 1.503-.103 1.405 9.352-1.406 33.762.965 45.701-27.013 0 0 6.163-12.856-1.712-14.981.001 0-10.887-5.115-12.599 7.474z" style="" fill="#d13834" data-original="#d13834"></path><path d="M48.974 17.608c.892-4.035.86-8.868-3.839-10.136 0 0-10.635-4.987-13.19 6.315 2.49-.189 5.827-.69 6.761-2.029 0 0 2.21 2.21 1.072 5.358 0 0 4.688-.536 4.286-4.286 0 0 2.88 2.478 2.143 6.429-.001 0 1.389-.421 2.767-1.651z" style="" fill="#88c057" data-original="#88c057"></path><path d="M14.928 45.996a1.001 1.001 0 0 1-.307-1.952c21.656-6.978 24.045-21.793 24.067-21.941a.991.991 0 0 1 1.133-.846 1 1 0 0 1 .846 1.133c-.096.658-2.602 16.201-25.433 23.559a1.053 1.053 0 0 1-.306.047z" style="" fill="#f75b57" data-original="#f75b57"></path></g></svg>