<svg xmlns="http://www.w3.org/2000/svg" version="1.1" xmlns:xlink="http://www.w3.org/1999/xlink" xmlns:svgjs="http://svgjs.com/svgjs" width="512" height="512" x="0" y="0" viewBox="0 0 464 464" style="enable-background:new 0 0 512 512" xml:space="preserve" class=""><g><g fill="#22689c"><path d="M256 56 240 0c-40 8-72 48-72 48l-10 12.664h100.664zM360 88l16-40c-24 0-54.098 23.2-54.098 23.2L312 78.663zM220.664 190.664A116.386 116.386 0 0 0 296 216l-16-32-7.336-12.664L210 178a65.273 65.273 0 0 0 10.664 12.664zM360 152l8 56a148.474 148.474 0 0 1-59-35l-12.336-11.664 62-19.336zM464 192V48a57.932 57.932 0 0 0-40.969 16.969L400 88v64l23.031 23.031A57.932 57.932 0 0 0 464 192zm0 0" fill="#22689c" data-original="#22689c"></path></g><path fill="#4398d1" d="M400 88h-3.336a183.55 183.55 0 0 1-74.762-16.8c-33.71-15.032-83-24.536-137.902-24.536C82.398 46.664 0 79.2 0 119.336S82.398 192 184 192c55.887 0 105.937-9.848 139.672-25.383A168.203 168.203 0 0 1 394.113 152H400zm0 0" data-original="#4398d1"></path><path fill="#87ced9" d="M.93 112a29.807 29.807 0 0 0-.93 7.336C0 159.465 82.398 192 184 192c55.887 0 105.938-9.848 139.672-25.383A168.203 168.203 0 0 1 394.113 152H400v-40zm0 0" data-original="#87ced9"></path><path fill="#0a4a7a" d="M72 96c0 8.836-7.164 16-16 16s-16-7.164-16-16 7.164-16 16-16 16 7.164 16 16zm0 0" data-original="#0a4a7a"></path><path fill="#22689c" d="M88 184a7.999 7.999 0 0 1-1.855-11.2l17.039-23.855a39.995 39.995 0 0 0 1.761-43.847l-7.8-13.028 13.71-8.222 7.81 13.015a55.993 55.993 0 0 1-2.458 61.375l-17.008 23.907A8.003 8.003 0 0 1 88 184zM156.129 192.09a62.568 62.568 0 0 1-32.25-8.992l8.242-13.723c19.207 11.645 44.004 7.785 58.766-9.145H144v-16h64a8 8 0 0 1 6.152 13.121L204 169.52a62.206 62.206 0 0 1-47.871 22.57zM144 104h216v16H144zm0 0" data-original="#22689c"></path><path fill="#0a4a7a" d="M432 112h32v16h-32zM432 80h32v16h-32zM432 144h32v16h-32zm0 0" data-original="#0a4a7a"></path><path fill="#22689c" d="M44.8 121.602 10.056 95.648a41.87 41.87 0 0 0-8.301 13.758l33.445 24.992zm0 0" data-original="#22689c"></path></g></svg>