<svg xmlns="http://www.w3.org/2000/svg" version="1.1" xmlns:xlink="http://www.w3.org/1999/xlink" xmlns:svgjs="http://svgjs.com/svgjs" width="512" height="512" x="0" y="0" viewBox="0 0 464 464.073" style="enable-background:new 0 0 512 512" xml:space="preserve" class=""><g><path fill="#6e9918" d="M152.035 96v304c83.95 0 152-68.05 152-152s-68.05-152-152-152zm0 0" data-original="#6e9918" class=""></path><path fill="#648c15" d="M176.035 98.07a153.44 153.44 0 0 0-24-2.07v304a153.44 153.44 0 0 0 24-2.07zm0 0" data-original="#648c15" class=""></path><path fill="#e3584b" d="M272.035 248c0-66.273-53.723-120-120-120v240c66.277 0 120-53.727 120-120zm0 0" data-original="#e3584b"></path><path fill="#d64740" d="M176.035 130.398a120.463 120.463 0 0 0-24-2.398v240c8.063.004 16.102-.797 24-2.398zm0 0" data-original="#d64740" class=""></path><path fill="#d64740" d="M152.035 322.824V368c42.735.04 82.254-22.668 103.742-59.605 21.489-36.938 21.688-82.516.532-119.641a385.553 385.553 0 0 1-104.274 134.07zm0 0" data-original="#d64740" class=""></path><path fill="#77a321" d="M.035 248c0 83.95 68.055 152 152 152V96c-83.945 0-152 68.05-152 152zm0 0" data-original="#77a321" class=""></path><path fill="#648c15" d="M120.035 342.398a72.812 72.812 0 0 0-8.797-36.32 56.862 56.862 0 0 1-7.203-29.3 56.792 56.792 0 0 1 7.203-29.282 72.705 72.705 0 0 0 8.797-36.297 72.814 72.814 0 0 0-8.797-36.312 56.806 56.806 0 0 1-7.203-29.285 56.792 56.792 0 0 1 7.203-29.282c1.414-2.894 2.813-5.8 4.078-9.008l3.938-7.648a150.808 150.808 0 0 0-20.8 6.258c-.536 1.133-1.067 2.258-1.602 3.375a72.701 72.701 0 0 0-8.817 36.305 72.733 72.733 0 0 0 8.8 36.3 56.893 56.893 0 0 1 7.2 29.297 56.789 56.789 0 0 1-7.2 29.281 72.704 72.704 0 0 0-8.8 36.274 72.791 72.791 0 0 0 8.8 36.316 63.296 63.296 0 0 1 0 58.61 89.054 89.054 0 0 0-6.136 15.336c4.899 2.175 9.91 4.09 15.008 5.738a67.727 67.727 0 0 1 5.512-14.059 72.764 72.764 0 0 0 8.816-36.297zM66.75 371.07a70.825 70.825 0 0 0 5.285-28.672 72.812 72.812 0 0 0-8.797-36.32 56.862 56.862 0 0 1-7.203-29.3 56.792 56.792 0 0 1 7.203-29.282 72.705 72.705 0 0 0 8.797-36.297 72.814 72.814 0 0 0-8.797-36.312 56.806 56.806 0 0 1-7.203-29.285 75.619 75.619 0 0 1 .442-8.41l1.207-8.2a152.588 152.588 0 0 0-17.649 16.496v.114a72.733 72.733 0 0 0 8.8 36.3 56.893 56.893 0 0 1 7.2 29.297 56.789 56.789 0 0 1-7.2 29.281 72.704 72.704 0 0 0-8.8 36.274 72.791 72.791 0 0 0 8.8 36.316 56.88 56.88 0 0 1 7.2 29.328 55.605 55.605 0 0 1-3.308 20.532 152.374 152.374 0 0 0 12.988 10.11l.64-1.153c.145-.262.274-.543.395-.817zm0 0" data-original="#648c15" class=""></path><g fill="#8f4b08"><path d="M176.035 264h16v16h-16zM176.035 216h16v16h-16zM176.035 312h16v16h-16zM208.035 232h16v16h-16zM208.035 184h16v16h-16zM208.035 280h16v16h-16zM176.035 168h16v16h-16zm0 0" fill="#8f4b08" data-original="#8f4b08" class=""></path></g><path fill="#ffa217" d="M112.035 408c0 30.93-25.07 56-56 56-30.926 0-56-25.07-56-56s25.074-56 56-56c30.93 0 56 25.07 56 56zm0 0" data-original="#ffa217" class=""></path><path fill="#f79502" d="M82.902 358.863a63.791 63.791 0 0 1-7.53 63.649 63.789 63.789 0 0 1-59.024 24.984 56 56 0 0 0 95.566-35.433 55.993 55.993 0 0 0-29.012-53.2zm0 0" data-original="#f79502" class=""></path><path fill="#f28e22" d="M80.035 400a33.692 33.692 0 0 1-30.308-18.734l-.852-1.692 14.32-7.148.84 1.687a17.797 17.797 0 0 0 16 9.887zm0 0" data-original="#f28e22"></path><path fill="#8f4b08" d="M184.035 376h-16v-32c0-8.836-7.16-16-16-16v-16c17.676 0 32 14.328 32 32zm0 0" data-original="#8f4b08" class=""></path><path fill="#e3584b" d="M198.668 464a28.07 28.07 0 0 1-12.566-2.969L176.035 456l-10.062 5.031a28.104 28.104 0 0 1-37.703-12.566l-2.793-5.602a127.333 127.333 0 0 1-13.442-56.918c-.004-18.75 15.195-33.949 33.945-33.945a33.93 33.93 0 0 1 24 9.945l6.055 6.055 6.059-6.055a33.93 33.93 0 0 1 24-9.945c18.746-.004 33.949 15.195 33.941 33.945a127.272 127.272 0 0 1-13.437 56.942l-2.793 5.601A28.102 28.102 0 0 1 198.668 464zm0 0" data-original="#e3584b"></path><path fill="#d64740" d="M206.094 352c-.617 0-1.219.145-1.832.184a40.782 40.782 0 0 1 3.773 17.03 154.665 154.665 0 0 1-16.32 69.184l-3.39 6.778a34.096 34.096 0 0 1-10.071 12l7.848 3.93c13.882 6.945 30.765 1.316 37.703-12.57l2.793-5.598a127.328 127.328 0 0 0 13.437-56.993c.008-18.75-15.195-33.949-33.941-33.945zm0 0" data-original="#d64740" class=""></path><path fill="#77a321" d="m360.035 88-48-48h-48l72 72zM360.035 88l48-48h48l-72 72zm0 0" data-original="#77a321" class=""></path><path fill="#7aa822" d="M384.035 112h-48V24l24-24 24 24zm0 0" data-original="#7aa822"></path><path fill="#88b337" d="M384.035 184h-48v-72l24-24 24 24zm0 0" data-original="#88b337"></path><path fill="#82ad31" d="m336.035 112-24-24h-48l40 40v56h32zM384.035 112l24-24h48l-40 40v56h-32zm0 0" data-original="#82ad31"></path><path fill="#ffa217" d="M360.035 152c57.438 0 104 46.563 104 104v104c0 57.438-46.562 104-104 104s-104-46.563-104-104V256c0-57.438 46.563-104 104-104zm0 0" data-original="#ffa217" class=""></path><path fill="#f79502" d="M402.875 161.313A103.353 103.353 0 0 1 424.035 224v104a103.841 103.841 0 0 1-47.57 87.426 103.859 103.859 0 0 1-99.27 7.262c26.918 35.667 73.625 50.128 115.989 35.917 42.363-14.214 70.894-53.921 70.851-98.605V256c-.015-40.836-23.941-77.879-61.16-94.687zm0 0" data-original="#f79502" class=""></path><path fill="#e37f1b" d="m464.035 324.688-8 8L419.348 296l36.687-36.688 8 8V256a104.471 104.471 0 0 0-2.973-24.336l-5.027 5.024L419.348 200l15.808-15.8a103.714 103.714 0 0 0-11.918-10.68l-15.203 15.199L372.11 152.8a96.046 96.046 0 0 0-24.144 0l-35.93 35.887-15.2-15.2a103.689 103.689 0 0 0-11.952 10.68L300.727 200l-36.692 36.688-5.023-5.024A104.475 104.475 0 0 0 256.035 256v11.313l8-8L300.727 296l-36.692 36.688-8-8V360c0 1.063.13 2.098.16 3.152l7.84-7.84L300.727 392l-26.594 26.594a103.296 103.296 0 0 0 10.137 12.484l27.765-27.765L348.727 440l-18.348 18.344 1.762 1.761a103.097 103.097 0 0 0 15.945 3.2l11.95-11.992 11.952 11.953a102.65 102.65 0 0 0 15.946-3.203l1.757-1.758L371.348 440l36.687-36.687 26.344 26.343 11.312-11.312L419.348 392l36.687-36.687 7.84 7.84c0-1.055.16-2.09.16-3.153zM444.727 248l-36.692 36.688L371.348 248l36.687-36.688zm-48 48-36.692 36.688L323.348 296l36.687-36.688zm-36.692-132.688L396.727 200l-36.692 36.688L323.348 200zM275.348 248l36.687-36.688L348.727 248l-36.692 36.688zm0 96 36.687-36.688L348.727 344l-36.692 36.688zm84.687 84.688L323.348 392l36.687-36.688L396.727 392zm48-48L371.348 344l36.687-36.688L444.727 344zm0 0" data-original="#e37f1b" class=""></path></g></svg>