<svg xmlns="http://www.w3.org/2000/svg" version="1.1" xmlns:xlink="http://www.w3.org/1999/xlink" xmlns:svgjs="http://svgjs.com/svgjs" width="512" height="512" x="0" y="0" viewBox="0 0 464 464.076" style="enable-background:new 0 0 512 512" xml:space="preserve" class=""><g><path fill="#70942d" d="m180.719 131.105 22.465-23.03c6.492-6.68 6.492-17.317 0-24a16.477 16.477 0 0 0-23.579 0l23.579-24c6.504-6.68 6.504-17.321 0-24a16.477 16.477 0 0 0-23.579 0l-11.832 12v-32a15.72 15.72 0 1 0-31.43 0v32l-11.745-11.962a16.524 16.524 0 0 0-23.657 0c-6.507 6.664-6.55 17.29-.093 24l21.168 21.867a16.507 16.507 0 0 0-21.075 2.141 16.836 16.836 0 0 0-4.535 8.8 17.184 17.184 0 0 0 4.434 15.153l27.086 28a393.856 393.856 0 0 1-3.625-3.742 16.268 16.268 0 0 0-11.68-5.05 16.274 16.274 0 0 0-11.742 4.906c-6.453 6.597-6.453 17.144 0 23.742l51.574 52.144 50.73-52c6.493-6.68 6.493-17.316 0-24-6.062-6.195-15.894-6.62-22.464-.969zm0 0" data-original="#70942d" class=""></path><path fill="#63a6d3" d="M176.04 88.074h88v248h-88zm0 0" data-original="#63a6d3" class=""></path><path fill="#4092c9" d="M264.04 336.074h80v-248l-40-40-40 40zm0 0" data-original="#4092c9" class=""></path><path fill="#579fd0" d="m176.04 88.074 40-40h88l-40 40zm0 0" data-original="#579fd0" class=""></path><path fill="#d6d9db" d="M216.04 16.074h88v32h-88zm0 0" data-original="#d6d9db" class=""></path><path fill="#579fd0" d="M176.04 236.074v100h88v-188zm0 0" data-original="#579fd0" class=""></path><path fill="#d68033" d="M387.965.074a44.969 44.969 0 0 1 41.098 61.274L345.727 283.18a44.062 44.062 0 0 1-41.098 28.894 44.967 44.967 0 0 1-41.094-61.273l83.328-221.832C353.195 11.707 369.578.19 387.965.074zm0 0" data-original="#d68033" class=""></path><path fill="#d17726" d="M263.535 250.8a44.967 44.967 0 0 0 41.094 61.274 44.062 44.062 0 0 0 41.098-28.894l54.062-143.907a248.797 248.797 0 0 1-112.488 48.258zm0 0" data-original="#d17726" class=""></path><path fill="#c96e23" d="m359.879 66.547 15.215-4.953 15.625 48.004-15.215 4.949zM336.43 122.555l15.21-4.953 15.63 48-15.211 4.953zm0 0" data-original="#c96e23" class=""></path><path fill="#88b337" d="m67.379 75.813 14.148-7.477 29.586 56.004-14.148 7.472zm0 0" data-original="#88b337" class=""></path><path fill="#88b337" d="m42.676 99.676 10.73-11.867 45.332 41-10.734 11.867zm0 0" data-original="#88b337" class=""></path><path fill="#ff7230" d="M204.422 303.82c-7.004 4.664-16.414 3.196-21.664-3.386l-100-125.496a35.7 35.7 0 0 1-8.176-27.883 35.685 35.685 0 0 1 15.266-24.723 34.979 34.979 0 0 1 50.894 13.383L210.11 283.44c3.414 7.262 1 15.93-5.68 20.38zm0 0" data-original="#ff7230"></path><path fill="#de5718" d="m111.414 155.883-27.129 20.984 9.969 12.512 26.953-20.84zM133.422 189.137l-24.223 18.992 9.977 12.523 24.125-18.914zm0 0" data-original="#de5718"></path><path fill="#ff9b30" d="M248.04 196.074c0 24.301-19.7 44-44 44-24.302 0-44-19.699-44-44s19.698-44 44-44c24.3 0 44 19.7 44 44zm0 0" data-original="#ff9b30" class=""></path><path fill="#f28e22" d="M223.902 156.875a50.396 50.396 0 0 1-12.996 45.863 50.388 50.388 0 0 1-45.402 14.52c9.07 16.62 27.758 25.574 46.394 22.226 18.641-3.343 33.047-18.242 35.77-36.98 2.723-18.738-6.852-37.117-23.766-45.629zm0 0" data-original="#f28e22"></path><path fill="#f0ae62" d="m288.04 192.074-24 16-24-16-24 16-24-16-24 16-24-16-24 16-24-16v240c0 17.672 14.323 32 32 32h184v-256zm0 0" data-original="#f0ae62" class=""></path><path fill="#e6994e" d="m360.04 208.074-24-16-24 16v256h40c17.67 0 32-14.328 32-32v-240zm0 0" data-original="#e6994e" class=""></path><path fill="#eda047" d="m127.805 448.54 2.793-5.603a127.333 127.333 0 0 0 13.441-56.917 33.756 33.756 0 0 0-15.531-28.598 33.75 33.75 0 0 0-32.469-2.195v76.847a31.94 31.94 0 0 0 18.887 29.13 28.03 28.03 0 0 0 12.879-12.665zm0 0" data-original="#eda047" class=""></path><path fill="#965735" d="M72.04 376.074h-16v-32c0-8.836-7.165-16-16-16v-16c17.67 0 32 14.328 32 32zm0 0" data-original="#965735" class=""></path><path fill="#e3584b" d="M86.672 464.074a28.087 28.087 0 0 1-12.57-2.969l-10.063-5.03-10.066 5.03a28.07 28.07 0 0 1-12.567 2.97 28.108 28.108 0 0 1-25.136-15.536l-2.793-5.601A127.277 127.277 0 0 1 .039 386.02c-.004-18.75 15.195-33.95 33.941-33.946a33.93 33.93 0 0 1 24 9.946l6.06 6.054 6.054-6.054a33.943 33.943 0 0 1 24-9.946c18.75-.004 33.949 15.196 33.945 33.946 0 19.765-4.601 39.261-13.441 56.94l-2.793 5.603a28.1 28.1 0 0 1-25.133 15.511zm0 0" data-original="#e3584b" class=""></path><path fill="#d64740" d="M112.582 357.602c-18.863 54.328-68.902 81.472-95.45 92.402 7.391 12.887 23.56 17.762 36.84 11.101l10.067-5.03 10.063 5.03c13.882 6.946 30.765 1.32 37.703-12.566l2.793-5.601a127.333 127.333 0 0 0 13.441-56.918 33.879 33.879 0 0 0-15.457-28.418zm0 0" data-original="#d64740"></path></g></svg>