<svg xmlns="http://www.w3.org/2000/svg" version="1.1" xmlns:xlink="http://www.w3.org/1999/xlink" xmlns:svgjs="http://svgjs.com/svgjs" width="512" height="512" x="0" y="0" viewBox="0 0 464.001 464" style="enable-background:new 0 0 512 512" xml:space="preserve" class=""><g><path fill="#f08f84" d="M464 80c0-44.184-35.816-80-80-80H160A160 160 0 0 0 .258 168.617c.406 7.809-.746 49.856 0 64 4.133 77.836 63.758 141.367 141.176 150.426 77.418 9.062 150.097-38.984 172.093-113.762 8.516-27.203 33.86-45.605 62.36-45.281H384c44.184 0 80-35.816 80-80zm0 0" data-original="#f08f84" class=""></path><path fill="#f2afa8" d="M160 0C77.559.023 8.633 62.684.773 144.75c-7.855 82.066 47.93 156.668 128.868 172.336 80.941 15.664 160.53-32.734 183.863-111.805 8.516-27.203 33.86-45.605 62.36-45.281H384c44.184 0 80-35.816 80-80S428.184 0 384 0zm0 0" data-original="#f2afa8" class=""></path><path fill="#e3584b" d="M160 288c-2.297 0-4.617-.063-6.945-.184-65.024-4.004-116.871-55.847-120.88-120.87A128.002 128.002 0 0 1 160 32h224c26.512 0 48 21.492 48 48 0 26.512-21.488 48-48 48h-8.145c-42.656-.219-80.44 27.492-93.046 68.25C266.539 250.535 216.672 287.79 160 288zm0 0" data-original="#e3584b" class=""></path><path fill="#f2afa8" d="M200 160c0 22.09-17.906 40-40 40-22.09 0-40-17.91-40-40s17.91-40 40-40c22.094 0 40 17.91 40 40zm0 0" data-original="#f2afa8" class=""></path><path fill="#ed7c6f" d="M384 0c44.184 0 80 35.816 80 80s-35.816 80-80 80h-8.137c-28.5-.324-53.843 18.078-62.36 45.281-16.03 54.903-60.241 97.012-115.858 110.356-55.618 13.34-114.122-4.13-153.317-45.782-13.945 1.602-26.312 2.305-36.582 2.61C29 339.469 91.527 384.73 161.82 383.996c70.293-.738 131.86-47.297 151.707-114.73 8.524-27.196 33.864-45.59 62.36-45.266H384c44.184 0 80-35.816 80-80V80c0-44.184-35.816-80-80-80zm0 0" data-original="#ed7c6f"></path><path fill="#ef9c93" d="M384 32c26.512 0 48 21.492 48 48 0 26.512-21.488 48-48 48h-8.145c-42.656-.219-80.44 27.492-93.046 68.25C266.539 250.535 216.672 287.79 160 288c-2.297 0-4.617-.063-6.945-.184a126.146 126.146 0 0 1-67.84-24.425 457.392 457.392 0 0 1-40.887 6.464c39.195 41.653 97.7 59.122 153.317 45.782 55.617-13.344 99.828-55.453 115.859-110.356 8.516-27.203 33.86-45.605 62.36-45.281H384c44.184 0 80-35.816 80-80S428.184 0 384 0h-15.27c-3.152 11.11-6.597 21.777-10.328 32zm0 0" data-original="#ef9c93"></path><path fill="#e04638" d="M160 288c56.672-.21 106.54-37.465 122.809-91.75 12.605-40.758 50.39-68.469 93.046-68.25H384c26.512 0 48-21.488 48-48 0-26.508-21.488-48-48-48h-25.598C300.72 189.688 176.52 244.71 85.242 263.39a126.123 126.123 0 0 0 67.84 24.426c2.3.122 4.621.184 6.918.184zm0 0" data-original="#e04638"></path></g></svg>