<svg xmlns="http://www.w3.org/2000/svg" version="1.1" xmlns:xlink="http://www.w3.org/1999/xlink" xmlns:svgjs="http://svgjs.com/svgjs" width="512" height="512" x="0" y="0" viewBox="0 0 51.529 51.529" style="enable-background:new 0 0 512 512" xml:space="preserve" class=""><g><path d="m36.486 12.899-5.089-.419 1.884-4.746c.308-.775.696-1.499 1.139-2.177a23.913 23.913 0 0 0-9.655-2.027c-13.255 0-24 10.745-24 24s10.745 24 24 24 24-10.745 24-24a23.9 23.9 0 0 0-5.954-15.813 12.233 12.233 0 0 1-6.325 1.182z" style="" fill="#ed8f20" data-original="#ed8f20" class=""></path><circle cx="38.537" cy="18.496" r="2" style="" fill="#ef771d" data-original="#ef771d" class=""></circle><circle cx="43.857" cy="29.651" r="2" style="" fill="#ef771d" data-original="#ef771d" class=""></circle><circle cx="43.537" cy="23.496" r="2" style="" fill="#ef771d" data-original="#ef771d" class=""></circle><circle cx="37.493" cy="27.529" r="2" style="" fill="#ef771d" data-original="#ef771d" class=""></circle><circle cx="38.537" cy="34.496" r="2" style="" fill="#ef771d" data-original="#ef771d" class=""></circle><circle cx="20.537" cy="10.496" r="2" style="" fill="#ef771d" data-original="#ef771d" class=""></circle><circle cx="13.537" cy="13.496" r="2" style="" fill="#ef771d" data-original="#ef771d" class=""></circle><path d="M27.765 11.529s4.25.7 5.4 3.6" style="" fill="#ed8f20" data-original="#ed8f20" class=""></path><path d="M33.165 16.13c-.397 0-.773-.239-.93-.632-.925-2.331-4.599-2.976-4.635-2.982a1 1 0 0 1 .326-1.973c.197.032 4.824.831 6.168 4.218a1 1 0 0 1-.929 1.369z" style="" fill="#9b6026" data-original="#9b6026"></path><path d="M28.365 14.529a9.796 9.796 0 0 1 3.787-2.567" style="" fill="#ed8f20" data-original="#ed8f20" class=""></path><path d="M28.364 15.529a1 1 0 0 1-.739-1.673 10.811 10.811 0 0 1 4.176-2.831 1.002 1.002 0 0 1 1.288.584 1.001 1.001 0 0 1-.585 1.288 8.796 8.796 0 0 0-3.4 2.304.995.995 0 0 1-.74.328z" style="" fill="#9b6026" data-original="#9b6026"></path><path d="M50.765.46 45.676.041a12.254 12.254 0 0 0-12.395 7.693l-1.884 4.746 5.089.419a12.255 12.255 0 0 0 12.395-7.693L50.765.46z" style="" fill="#659c35" data-original="#659c35"></path><path d="m31.958 11.068-.561 1.413.718.059c6.258-6.111 13.059-8.117 13.803-8.164l.035-.559.413.413.158-.593-.444-.425c-.598-.132-7.583 1.797-14.122 7.856z" style="" fill="#88c057" data-original="#88c057"></path></g></svg>