<svg xmlns="http://www.w3.org/2000/svg" version="1.1" xmlns:xlink="http://www.w3.org/1999/xlink" xmlns:svgjs="http://svgjs.com/svgjs" width="512" height="512" x="0" y="0" viewBox="0 0 472 472.744" style="enable-background:new 0 0 512 512" xml:space="preserve" class=""><g><path fill="#81ad2b" d="M352.352 216.54a47.718 47.718 0 0 0-10.84-30.403 15.363 15.363 0 0 1 0-19.282 47.931 47.931 0 0 0 9.715-40.675 47.953 47.953 0 0 0-25.907-32.828c-7.484-3.516-11-12.204-8.066-19.934 7.61-20.242.742-43.07-16.77-55.758-17.507-12.683-41.34-12.098-58.203 1.438a15.801 15.801 0 0 1-19.86 0C205.56 5.563 181.732 4.977 164.22 17.66c-17.512 12.688-24.38 35.516-16.77 55.758 2.934 7.73-.582 16.418-8.066 19.934a47.963 47.963 0 0 0-25.957 32.863 47.951 47.951 0 0 0 9.765 40.722 15.363 15.363 0 0 1 0 19.282c-14.457 17.664-14.457 43.07 0 60.734a15.523 15.523 0 0 1-.191 19.48 48 48 0 0 0 37.352 78.106 46.41 46.41 0 0 0 5.601-.504l11.606 80.98c3.898 27.27 27.25 47.52 54.793 47.524 27.543-.004 50.894-20.254 54.793-47.523l11.605-80.98a46.41 46.41 0 0 0 5.602.503 47.994 47.994 0 0 0 43.296-27.305 47.995 47.995 0 0 0-5.953-50.84 15.523 15.523 0 0 1-.191-19.48 47.778 47.778 0 0 0 10.848-30.375zm0 0" data-original="#81ad2b" class=""></path><g fill="#77a321"><path d="M352.352 136.54a47.648 47.648 0 0 0-14.809-34.513 589.023 589.023 0 0 1-167.406 270.98l7.422 52c3.882 27.286 27.242 47.555 54.8 47.555s50.918-20.269 54.801-47.554l11.59-80.973a46.41 46.41 0 0 0 5.602.504 47.994 47.994 0 0 0 43.296-27.305 47.995 47.995 0 0 0-5.953-50.84 15.523 15.523 0 0 1-.191-19.48c14.457-17.664 14.457-43.074 0-60.738a15.358 15.358 0 0 1 0-19.278 47.727 47.727 0 0 0 10.848-30.359zM32.352.54h16v128.663h-16zM.371 1.07 16.336 0l9.312 138.8-15.96 1.071zM55.754 136.54 64.3.03l15.969 1-8.547 136.508zm0 0" fill="#77a321" data-original="#77a321"></path></g><path fill="#648c15" d="M32.352 104.54h16v24.663h-16zM9.688 139.875l15.96-1.066-2.304-34.27H7.312zM55.688 136.54l15.968 1 2.094-33H57.719zM240.352 432.54h-16V318.671a85.88 85.88 0 0 1-50.77-42.207l-4.309-8.207 14.16-7.442 4.31 8.22a69.951 69.951 0 0 0 36.609 32.702v-71.066a85.88 85.88 0 0 1-50.77-42.207l-4.309-8.207 14.16-7.442 4.31 8.22a69.951 69.951 0 0 0 36.609 32.702v-71.066a74.314 74.314 0 0 1-43.344-35.488l-3.696-6.848 14.079-7.598 3.695 6.84a58.153 58.153 0 0 0 29.266 26.11V72.538h16v53.148a58.153 58.153 0 0 0 29.265-26.109l3.695-6.84 14.079 7.598-3.696 6.848a74.314 74.314 0 0 1-43.343 35.488v71.066a69.951 69.951 0 0 0 36.609-32.703l4.312-8.219 14.16 7.442-4.312 8.207a85.88 85.88 0 0 1-50.77 42.207v71.066a69.951 69.951 0 0 0 36.61-32.703l4.312-8.219 14.16 7.442-4.312 8.207a85.88 85.88 0 0 1-50.77 42.207zm0 0" data-original="#648c15" class=""></path><path fill="#e3584b" d="M464.352 416.54c0 30.925-25.07 56-56 56-30.926 0-56-25.075-56-56 0-30.93 25.074-56 56-56 30.93 0 56 25.07 56 56zm0 0" data-original="#e3584b"></path><path fill="#d64740" d="M441.953 371.832c.238 2.402.367 4.867.367 7.344-.004 40.515-32.847 73.355-73.36 73.363-1.241 0-2.448-.129-3.679-.187a56.001 56.001 0 0 0 56.86 18.707 56.002 56.002 0 0 0 41.273-43.348 55.995 55.995 0 0 0-21.46-55.879zm0 0" data-original="#d64740"></path><path fill="#77a321" d="M424.352 184.54v-48l-24-128h-24l16 128v65.597a230.773 230.773 0 0 1-7.407 51.082 23.893 23.893 0 0 0-.218 9.52c2.195 12.245 13.386 20.784 25.777 19.671 12.394-1.117 21.879-11.52 21.848-23.96 0-1.16-.086-2.325-.254-3.473a482.484 482.484 0 0 1-7.746-70.438zm0 0" data-original="#77a321"></path><path fill="#648c15" d="m424.352 136.54 16-128h-24l-8 42.663zM432.762 326.008a42.838 42.838 0 0 1-16.41 21.73V312.54h-16v35.2a42.803 42.803 0 0 1-16.407-21.696l-15.203 5.055a58.87 58.87 0 0 0 37.067 37.062 7.992 7.992 0 0 0 5.054 0 58.87 58.87 0 0 0 37.067-37.062zm0 0" data-original="#648c15" class=""></path><path fill="#ff7230" d="M40.352 472.54c-13.438 0-24.493-10.58-25.086-24L1.87 153.991a31.994 31.994 0 0 1 8.844-23.574 31.977 31.977 0 0 1 23.156-9.879h12.992a31.992 31.992 0 0 1 32 33.453L65.441 448.54c-.597 13.422-11.652 24-25.09 24zm0 0" data-original="#ff7230" class=""></path><path fill="#fa7366" d="M384.504 437.875a32.015 32.015 0 0 1-7.156-29.277 32.002 32.002 0 0 1 20.34-22.235l5.328 15.086a16.002 16.002 0 0 0-10.168 11.117 16.022 16.022 0 0 0 3.574 14.637zm0 0" data-original="#fa7366"></path><path fill="#d6d9db" d="m424.68 192.54-32.328-55.954v65.55a230.773 230.773 0 0 1-7.407 51.083 23.893 23.893 0 0 0-.218 9.52c2.195 12.245 13.386 20.784 25.777 19.671 12.394-1.117 21.879-11.52 21.848-23.96 0-1.16-.086-2.325-.254-3.473a579.114 579.114 0 0 1-7.418-62.438zm0 0" data-original="#d6d9db"></path><path fill="#de5718" d="M40.352 168.54H2.535l.73 16h37.087zM40.352 248.54h34.183l.73-16H40.353zM40.422 296.68l-32.078-.285.726 16.007 31.211.278zM40.352 392.54h27.64l.719-16H40.35zm0 0" data-original="#de5718" class=""></path></g></svg>